<?xml version="1.0" encoding="utf-8"?>
<!-- Generator: Adobe Illustrator 16.0.4, SVG Export Plug-In . SVG Version: 6.00 Build 0)  -->
<!DOCTYPE svg PUBLIC "-//W3C//DTD SVG 1.1//EN" "http://www.w3.org/Graphics/SVG/1.1/DTD/svg11.dtd">
<svg version="1.1" id="Layer_1" xmlns="http://www.w3.org/2000/svg" xmlns:xlink="http://www.w3.org/1999/xlink" x="0px" y="0px"
	 width="107px" height="50px" viewBox="0 0 107 50" enable-background="new 0 0 107 50" xml:space="preserve">
<polygon fill="#FFFFFF" points="4.979,12.926 1.754,12.926 1.754,12.433 8.735,12.433 8.735,12.926 5.51,12.926 5.51,21.082 
	4.979,21.082 "/>
<polygon fill="#FFFFFF" points="10.721,12.433 11.252,12.433 11.252,16.498 16.738,16.498 16.738,12.433 17.271,12.433 
	17.271,21.082 16.738,21.082 16.738,16.991 11.252,16.991 11.252,21.082 10.721,21.082 "/>
<polygon fill="#FFFFFF" points="20.492,12.433 25.226,12.433 25.226,12.926 21.023,12.926 21.023,16.473 24.471,16.473 
	24.471,16.967 21.023,16.967 21.023,20.588 25.459,20.588 25.459,21.082 20.492,21.082 "/>
<path fill="#FFFFFF" d="M32.524,12.433h0.519l2.521,5.436c0.198,0.42,0.419,0.976,0.419,0.976h0.025c0,0,0.223-0.556,0.42-0.976
	l2.522-5.436h0.518l0.692,8.649h-0.531l-0.531-6.598c-0.038-0.421-0.038-1.149-0.038-1.149h-0.024c0,0-0.247,0.728-0.445,1.149
	l-2.323,4.929h-0.544l-2.31-4.929c-0.186-0.408-0.458-1.174-0.458-1.174h-0.025c0,0,0,0.753-0.036,1.174l-0.532,6.598h-0.531
	L32.524,12.433z"/>
<path fill="#FFFFFF" d="M47.372,18.092h-3.67l-1.112,2.99h-0.568l3.238-8.649h0.568l3.237,8.649h-0.569L47.372,18.092z
	 M45.531,13.051c0,0-0.185,0.666-0.321,1.037l-1.322,3.509h3.299l-1.31-3.509c-0.136-0.371-0.321-1.037-0.321-1.037H45.531z"/>
<path fill="#FFFFFF" d="M54.857,12.284c1.953,0,3.016,0.976,3.016,0.976l-0.322,0.407c0,0-1.037-0.876-2.693-0.876
	c-2.175,0-3.756,1.73-3.756,3.966c0,2.249,1.544,3.966,3.682,3.966c1.854,0,2.967-1.421,2.967-1.421v-1.667h-1.545V17.14h2.076
	v3.942H57.75v-0.755c0-0.185,0.012-0.37,0.012-0.37h-0.025c0,0-1.037,1.272-2.953,1.272c-2.41,0-4.238-1.963-4.238-4.472
	C50.545,14.261,52.412,12.284,54.857,12.284"/>
<rect x="61.033" y="12.433" fill="#FFFFFF" width="0.529" height="8.649"/>
<path fill="#FFFFFF" d="M68.494,12.284c2.051,0,3.088,1.087,3.088,1.087l-0.32,0.395c0,0-1.025-0.975-2.754-0.975
	c-2.125,0-3.744,1.667-3.744,3.904c0,2.249,1.605,4.028,3.781,4.028c1.852,0,2.928-1.173,2.928-1.173l0.334,0.37
	c0,0-1.162,1.309-3.262,1.309c-2.521,0-4.338-2.026-4.338-4.534C64.207,14.187,66.061,12.284,68.494,12.284"/>
<path fill="#FFFFFF" d="M2.739,26.496h6.959c3.021,0,5.242,2.016,5.242,5.184c0,2.25-1.096,3.76-2.695,4.531v0.059
	c2.043,0.562,3.524,2.576,3.524,5.242c0,3.465-2.458,5.715-5.775,5.715H2.739V26.496z M9.669,35.736c2.31,0,3.938-1.598,3.938-4.057
	c0-2.428-1.54-3.998-3.968-3.998H4.013v8.055H9.669z M9.876,46.043c2.784,0,4.56-1.719,4.56-4.531c0-2.814-1.924-4.59-4.59-4.59
	H4.013v9.121H9.876z"/>
<polygon fill="#FFFFFF" points="21.072,26.498 32.415,26.498 32.415,27.682 22.345,27.682 22.345,36.18 30.607,36.18 30.607,37.365 
	22.345,37.365 22.345,46.043 32.977,46.043 32.977,47.227 21.072,47.227 "/>
<path fill="#FFFFFF" d="M48.142,40.061h-8.795l-2.665,7.166H35.32l7.759-20.73h1.362l7.758,20.73h-1.362L48.142,40.061z
	 M43.73,27.979c0,0-0.444,1.598-0.77,2.488l-3.169,8.408h7.907l-3.139-8.408c-0.326-0.891-0.77-2.488-0.77-2.488H43.73z"/>
<path fill="#FFFFFF" d="M55.934,26.498h1.186l11.814,16.256c0.682,0.949,1.688,2.605,1.688,2.605h0.059c0,0-0.146-1.568-0.146-2.605
	V26.498h1.273v20.729h-1.186L58.805,30.969c-0.68-0.949-1.686-2.607-1.686-2.607h-0.061c0,0,0.148,1.57,0.148,2.607v16.258h-1.273
	V26.498z"/>
<path fill="none" stroke="#FFFFFF" stroke-width="2.25" stroke-linejoin="round" stroke-miterlimit="10" d="M101.811,40.008H91.191
	c-0.826,0-1.451-0.746-1.305-1.559l1.109-6.225c0.113-0.633,0.662-1.092,1.305-1.092h10.619c0.826,0,1.451,0.746,1.307,1.559
	l-1.111,6.223C103.002,39.547,102.453,40.008,101.811,40.008z"/>
<path fill="none" stroke="#FFFFFF" stroke-miterlimit="10" d="M95.271,46.635H84.545c-0.881,0-1.627-0.652-1.742-1.527
	l-3.023-22.837c-0.066-0.485,0.312-0.916,0.801-0.916h18.656c0.49,0,0.867,0.431,0.803,0.916l-3.023,22.837
	C96.9,45.982,96.154,46.635,95.271,46.635"/>
<path fill="none" stroke="#FFFFFF" stroke-width="1.5" stroke-miterlimit="10" d="M95.271,46.635H84.545
	c-0.881,0-1.627-0.652-1.742-1.527l-3.023-22.837c-0.066-0.485,0.312-0.916,0.801-0.916h18.656c0.49,0,0.867,0.431,0.803,0.916
	l-3.023,22.837C96.9,45.982,96.154,46.635,95.271,46.635z"/>
<path fill="#FFFFFF" d="M87.979,7.113c2.508,0,4.539-2.032,4.539-4.538c0,2.506,2.031,4.538,4.539,4.538
	c-2.508,0-4.539,2.032-4.539,4.538C92.518,9.145,90.486,7.113,87.979,7.113"/>
<path fill="#FFFFFF" d="M82.205,12.442c1.637,0,2.965-1.327,2.965-2.965c0,1.638,1.326,2.965,2.963,2.965
	c-1.637,0-2.963,1.327-2.963,2.965C85.17,13.769,83.842,12.442,82.205,12.442"/>
<path fill="#FFFFFF" d="M88.068,17.838c1.229,0,2.225-0.996,2.225-2.225c0,1.229,0.996,2.225,2.225,2.225
	c-1.229,0-2.225,0.996-2.225,2.225C90.293,18.834,89.297,17.838,88.068,17.838"/>
<polygon fill="#FFFFFF" points="99.262,27.379 80.557,27.379 82.803,45.107 83.979,46.535 95.271,46.635 97.016,45.107 "/>
</svg>
