<?xml version="1.0" encoding="utf-8"?>
<!-- Generator: Adobe Illustrator 19.2.1, SVG Export Plug-In . SVG Version: 6.00 Build 0)  -->
<svg version="1.1" id="Layer_1" xmlns="http://www.w3.org/2000/svg" xmlns:xlink="http://www.w3.org/1999/xlink" x="0px" y="0px"
	 viewBox="0 0 141.7 70.9" style="enable-background:new 0 0 141.7 70.9;" xml:space="preserve">
<style type="text/css">
	.st0{fill:#FFFCF6;}
	.st1{fill:none;stroke:#FFFCF6;stroke-width:2.25;stroke-linejoin:round;stroke-miterlimit:10;}
	.st2{fill:none;stroke:#FFFCF6;stroke-width:1.5;stroke-miterlimit:10;}
</style>
<g>
	<path class="st0" d="M22.7,23.4h-3.2v-0.5h7v0.5h-3.2v8.2h-0.5V23.4z"/>
	<path class="st0" d="M28.5,22.9H29V27h5.5v-4.1H35v8.6h-0.5v-4.1H29v4.1h-0.5V22.9z"/>
	<path class="st0" d="M38.2,22.9H43v0.5h-4.2V27h3.4v0.5h-3.4v3.6h4.4v0.5h-5V22.9z"/>
	<path class="st0" d="M50.3,22.9h0.5l2.5,5.4c0.2,0.4,0.4,1,0.4,1h0c0,0,0.2-0.6,0.4-1l2.5-5.4h0.5l0.7,8.6h-0.5L56.9,25
		c0-0.4,0-1.1,0-1.1h0c0,0-0.2,0.7-0.4,1.1L54,29.9h-0.5L51.2,25c-0.2-0.4-0.5-1.2-0.5-1.2h0c0,0,0,0.8,0,1.2l-0.5,6.6h-0.5
		L50.3,22.9z"/>
	<path class="st0" d="M65.1,28.6h-3.7l-1.1,3h-0.6l3.2-8.6h0.6l3.2,8.6h-0.6L65.1,28.6z M63.3,23.5c0,0-0.2,0.7-0.3,1l-1.3,3.5h3.3
		l-1.3-3.5C63.5,24.2,63.3,23.5,63.3,23.5L63.3,23.5z"/>
	<path class="st0" d="M72.6,22.8c2,0,3,1,3,1l-0.3,0.4c0,0-1-0.9-2.7-0.9c-2.2,0-3.8,1.7-3.8,4c0,2.2,1.5,4,3.7,4c1.9,0,3-1.4,3-1.4
		v-1.7H74v-0.5H76v3.9h-0.5v-0.8c0-0.2,0-0.4,0-0.4h0c0,0-1,1.3-3,1.3c-2.4,0-4.2-2-4.2-4.5C68.3,24.8,70.2,22.8,72.6,22.8z"/>
	<path class="st0" d="M78.8,22.9h0.5v8.6h-0.5V22.9z"/>
	<path class="st0" d="M86.2,22.8c2.1,0,3.1,1.1,3.1,1.1L89,24.3c0,0-1-1-2.8-1c-2.1,0-3.7,1.7-3.7,3.9c0,2.2,1.6,4,3.8,4
		c1.9,0,2.9-1.2,2.9-1.2l0.3,0.4c0,0-1.2,1.3-3.3,1.3c-2.5,0-4.3-2-4.3-4.5S83.8,22.8,86.2,22.8z"/>
</g>
<g>
	<path class="st0" d="M20.5,37h7c3,0,5.2,2,5.2,5.2c0,2.3-1.1,3.8-2.7,4.5v0.1c2,0.6,3.5,2.6,3.5,5.2c0,3.5-2.5,5.7-5.8,5.7h-7.3V37
		z M27.4,46.2c2.3,0,3.9-1.6,3.9-4.1c0-2.4-1.5-4-4-4h-5.6v8.1H27.4z M27.6,56.5c2.8,0,4.6-1.7,4.6-4.5c0-2.8-1.9-4.6-4.6-4.6h-5.8
		v9.1H27.6z"/>
	<path class="st0" d="M38.8,37h11.3v1.2H40.1v8.5h8.3v1.2h-8.3v8.7h10.6v1.2H38.8V37z"/>
	<path class="st0" d="M65.9,50.6h-8.8l-2.7,7.2h-1.4L60.8,37h1.4L70,57.7h-1.4L65.9,50.6z M61.5,38.5c0,0-0.4,1.6-0.8,2.5l-3.2,8.4
		h7.9L62.3,41C62,40.1,61.5,38.5,61.5,38.5L61.5,38.5z"/>
	<path class="st0" d="M73.7,37h1.2l11.8,16.3c0.7,0.9,1.7,2.6,1.7,2.6h0.1c0,0-0.1-1.6-0.1-2.6V37h1.3v20.7h-1.2L76.6,41.5
		c-0.7-0.9-1.7-2.6-1.7-2.6h-0.1c0,0,0.1,1.6,0.1,2.6v16.3h-1.3V37z"/>
</g>
<g>
	<path class="st1" d="M119.6,50.5h-10.6c-0.8,0-1.4-0.7-1.3-1.6l1.1-6.2c0.1-0.6,0.7-1.1,1.3-1.1h10.6c0.8,0,1.4,0.7,1.3,1.6
		l-1.1,6.2C120.8,50,120.2,50.5,119.6,50.5z"/>
	<path class="st2" d="M113,57.1h-10.7c-0.9,0-1.6-0.7-1.7-1.5l-3-22.8c-0.1-0.5,0.3-0.9,0.8-0.9H117c0.5,0,0.9,0.4,0.8,0.9l-3,22.8
		C114.7,56.5,113.9,57.1,113,57.1z"/>
	<path class="st0" d="M105.7,17.6c2.5,0,4.5-2,4.5-4.5c0,2.5,2,4.5,4.5,4.5c-2.5,0-4.5,2-4.5,4.5C110.3,19.6,108.2,17.6,105.7,17.6z
		"/>
	<path class="st0" d="M100,22.9c1.6,0,3-1.3,3-3c0,1.6,1.3,3,3,3c-1.6,0-3,1.3-3,3C102.9,24.3,101.6,22.9,100,22.9z"/>
	<path class="st0" d="M105.8,28.3c1.2,0,2.2-1,2.2-2.2c0,1.2,1,2.2,2.2,2.2c-1.2,0-2.2,1-2.2,2.2C108,29.3,107,28.3,105.8,28.3z"/>
	<polygon class="st0" points="117,37.9 98.3,37.9 100.6,55.6 101.7,57 113,57.1 114.8,55.6 	"/>
</g>
</svg>
