<?xml version="1.0" encoding="utf-8"?>
<!-- Generator: Adobe Illustrator 16.0.4, SVG Export Plug-In . SVG Version: 6.00 Build 0)  -->
<!DOCTYPE svg PUBLIC "-//W3C//DTD SVG 1.1//EN" "http://www.w3.org/Graphics/SVG/1.1/DTD/svg11.dtd">
<svg version="1.1" id="Layer_1" xmlns="http://www.w3.org/2000/svg" xmlns:xlink="http://www.w3.org/1999/xlink" x="0px" y="0px"
	 width="141.732px" height="141.732px" viewBox="0 0 141.732 141.732" enable-background="new 0 0 141.732 141.732"
	 xml:space="preserve">
<g>
	<polygon fill="none" stroke="#FFFFFF" stroke-miterlimit="10" points="26.552,81.396 22.494,81.396 22.494,80.775 31.277,80.775 
		31.277,81.396 27.22,81.396 27.22,91.658 26.552,91.658 	"/>
	<polygon fill="none" stroke="#FFFFFF" stroke-miterlimit="10" points="33.777,80.775 34.445,80.775 34.445,85.89 41.348,85.89 
		41.348,80.775 42.017,80.775 42.017,91.658 41.348,91.658 41.348,86.511 34.445,86.511 34.445,91.658 33.777,91.658 	"/>
	<polygon fill="none" stroke="#FFFFFF" stroke-miterlimit="10" points="46.072,80.775 52.027,80.775 52.027,81.396 46.74,81.396 
		46.74,85.859 51.079,85.859 51.079,86.48 46.74,86.48 46.74,91.037 52.321,91.037 52.321,91.658 46.072,91.658 	"/>
	<g>
		<defs>
			<rect id="SVGID_1_" x="-22.602" y="-16.854" width="178.334" height="178.334"/>
		</defs>
		<clipPath id="SVGID_2_">
			<use xlink:href="#SVGID_1_"  overflow="visible"/>
		</clipPath>
		<path clip-path="url(#SVGID_2_)" fill="none" stroke="#FFFFFF" stroke-miterlimit="10" d="M61.21,80.775h0.653l3.172,6.84
			c0.25,0.529,0.527,1.229,0.527,1.229h0.031c0,0,0.281-0.699,0.529-1.229l3.173-6.84h0.651l0.871,10.883H70.15l-0.669-8.301
			c-0.047-0.531-0.047-1.447-0.047-1.447h-0.03c0,0-0.311,0.916-0.561,1.447l-2.923,6.201h-0.684l-2.906-6.201
			c-0.234-0.514-0.577-1.479-0.577-1.479h-0.032c0,0,0,0.947-0.045,1.479l-0.669,8.301H60.34L61.21,80.775z"/>
		<path clip-path="url(#SVGID_2_)" fill="none" stroke="#FFFFFF" stroke-miterlimit="10" d="M79.893,87.896h-4.617l-1.4,3.762
			h-0.713l4.072-10.883h0.716l4.073,10.883h-0.717L79.893,87.896z M77.576,81.552c0,0-0.232,0.838-0.404,1.305l-1.663,4.416h4.151
			l-1.648-4.416c-0.171-0.467-0.402-1.305-0.402-1.305H77.576z"/>
		<path clip-path="url(#SVGID_2_)" fill="none" stroke="#FFFFFF" stroke-miterlimit="10" d="M89.311,80.587
			c2.459,0,3.795,1.229,3.795,1.229l-0.404,0.512c0,0-1.307-1.102-3.391-1.102c-2.736,0-4.725,2.178-4.725,4.99
			c0,2.828,1.941,4.99,4.633,4.99c2.332,0,3.732-1.789,3.732-1.789V87.32h-1.943v-0.621h2.611v4.959h-0.668v-0.949
			c0-0.232,0.014-0.467,0.014-0.467h-0.031c0,0-1.303,1.602-3.715,1.602c-3.031,0-5.332-2.469-5.332-5.627
			C83.887,83.076,86.234,80.587,89.311,80.587"/>
		
			<rect x="97.082" y="80.775" clip-path="url(#SVGID_2_)" fill="none" stroke="#FFFFFF" stroke-miterlimit="10" width="0.668" height="10.883"/>
		<path clip-path="url(#SVGID_2_)" fill="none" stroke="#FFFFFF" stroke-miterlimit="10" d="M106.469,80.587
			c2.582,0,3.887,1.367,3.887,1.367l-0.402,0.498c0,0-1.291-1.227-3.467-1.227c-2.676,0-4.711,2.096-4.711,4.912
			c0,2.83,2.021,5.068,4.756,5.068c2.334,0,3.686-1.477,3.686-1.477l0.42,0.465c0,0-1.459,1.648-4.105,1.648
			c-3.17,0-5.455-2.551-5.455-5.705C101.076,82.982,103.406,80.587,106.469,80.587"/>
		<path clip-path="url(#SVGID_2_)" fill="#FFFFFF" d="M23.734,98.47h8.756c3.801,0,6.595,2.535,6.595,6.521
			c0,2.832-1.379,4.732-3.391,5.701v0.076c2.57,0.707,4.434,3.238,4.434,6.592c0,4.361-3.093,7.193-7.267,7.193h-9.128V98.47z
			 M32.453,110.097c2.907,0,4.955-2.012,4.955-5.105c0-3.055-1.937-5.029-4.992-5.029h-7.079v10.135H32.453z M32.713,123.064
			c3.503,0,5.737-2.162,5.737-5.703c0-3.537-2.42-5.773-5.775-5.773h-7.339v11.477H32.713z"/>
		<polygon clip-path="url(#SVGID_2_)" fill="#FFFFFF" points="46.802,98.47 61.072,98.47 61.072,99.962 48.403,99.962 
			48.403,110.656 58.798,110.656 58.798,112.144 48.403,112.144 48.403,123.064 61.78,123.064 61.78,124.554 46.802,124.554 		"/>
		<path clip-path="url(#SVGID_2_)" fill="#FFFFFF" d="M80.863,115.537H69.795l-3.354,9.018h-1.713l9.763-26.084h1.714l9.762,26.084
			h-1.715L80.863,115.537z M75.311,100.335c0,0-0.559,2.012-0.969,3.129l-3.988,10.582h9.949l-3.949-10.582
			c-0.41-1.117-0.969-3.129-0.969-3.129H75.311z"/>
		<path clip-path="url(#SVGID_2_)" fill="#FFFFFF" d="M90.666,98.47h1.49l14.867,20.457c0.855,1.193,2.123,3.279,2.123,3.279h0.074
			c0,0-0.188-1.975-0.188-3.279V98.47h1.604v26.084h-1.49l-14.867-20.457c-0.857-1.193-2.123-3.279-2.123-3.279H92.08
			c0,0,0.188,1.977,0.188,3.279v20.457h-1.602V98.47z"/>
		
			<path clip-path="url(#SVGID_2_)" fill="none" stroke="#FFFFFF" stroke-width="2.8311" stroke-linejoin="round" stroke-miterlimit="10" d="
			M82.945,55.731H69.584c-1.039,0-1.825-0.939-1.644-1.96l1.398-7.831c0.142-0.797,0.833-1.376,1.641-1.376h13.362
			c1.039,0,1.824,0.939,1.643,1.961l-1.396,7.832C84.445,55.152,83.754,55.731,82.945,55.731z"/>
		<path clip-path="url(#SVGID_2_)" fill="#FFFFFF" d="M74.717,64.07H61.222c-1.11,0-2.047-0.822-2.193-1.923l-3.805-28.733
			c-0.082-0.61,0.394-1.153,1.009-1.153h23.474c0.615,0,1.09,0.543,1.01,1.153l-3.805,28.733
			C76.766,63.248,75.828,64.07,74.717,64.07"/>
		<path clip-path="url(#SVGID_2_)" fill="none" stroke="#FFFFFF" stroke-miterlimit="10" d="M74.717,64.07H61.222
			c-1.11,0-2.047-0.822-2.193-1.923l-3.805-28.733c-0.082-0.61,0.394-1.153,1.009-1.153h23.474c0.615,0,1.09,0.543,1.01,1.153
			l-3.805,28.733C76.766,63.248,75.828,64.07,74.717,64.07z"/>
		<path clip-path="url(#SVGID_2_)" fill="#FFFFFF" d="M65.542,14.341c3.154,0,5.71-2.556,5.71-5.709
			c0,3.153,2.558,5.709,5.711,5.709c-3.153,0-5.711,2.558-5.711,5.71C71.252,16.898,68.696,14.341,65.542,14.341"/>
		<path clip-path="url(#SVGID_2_)" fill="#FFFFFF" d="M58.275,21.047c2.061,0,3.731-1.669,3.731-3.731
			c0,2.062,1.669,3.731,3.73,3.731c-2.061,0-3.73,1.669-3.73,3.731C62.006,22.717,60.336,21.047,58.275,21.047"/>
		<path clip-path="url(#SVGID_2_)" fill="#FFFFFF" d="M65.654,27.837c1.545,0,2.799-1.253,2.799-2.8c0,1.546,1.253,2.8,2.801,2.8
			c-1.548,0-2.801,1.253-2.801,2.8C68.453,29.091,67.199,27.837,65.654,27.837"/>
		<polygon clip-path="url(#SVGID_2_)" fill="#FFFFFF" points="79.738,39.842 56.202,39.842 59.028,62.147 60.508,63.946 
			74.717,64.07 76.912,62.147 		"/>
	</g>
</g>
</svg>
